<svg id="Ebene_1" data-name="Ebene 1" xmlns="http://www.w3.org/2000/svg" viewBox="0 0 563.79 1766.53">
  <defs>
    <style>
      .cls-1 {
        fill: #407f59;
      }
    </style>
  </defs>
  <title>icon</title>
  <path class="cls-1" d="M718.11,398.63v20.6l247.72,55.13a25.06,25.06,0,0,1-10.89,48.92L718.11,470.57V657.28l247.72,55.13a25.05,25.05,0,1,1-10.89,48.91l-236.83-52.7v186.7l247.72,55.13a25.06,25.06,0,0,1-10.89,48.92L718.11,946.66v211.76l247.72,55.13a25.06,25.06,0,0,1-10.89,48.92l-236.83-52.71v193l247.72,55.13a25.06,25.06,0,0,1-10.89,48.92l-236.83-52.71v166.1h.69c9.68,146.91,131.84,263.1,281.2,263.1s271.52-116.19,281.2-263.1h.69V398.63c0-155.69-126.2-281.9-281.89-281.9S718.11,242.94,718.11,398.63Z" transform="translate(-718.11 -116.73)"/>
</svg>
